Coordinates
nRows=11
nColumns=24

# SIMM Motion File Header:
name Coordinates
datacolumns 24
datarows 11
otherdata 1
range 1.09075000000000030000 1.11500000000000200000
endheader
time	pelvis_tx	pelvis_ty	pelvis_tz	pelvis_tilt	pelvis_list	pelvis_rotation	hip_flexion_r	hip_adduction_r	hip_rotation_r	knee_angle_r	ankle_angle_r	subtalar_angle_r	mtp_angle_r	hip_flexion_l	hip_adduction_l	hip_rotation_l	knee_angle_l	ankle_angle_l	subtalar_angle_l	mtp_angle_l	lumbar_extension	lumbar_bending	lumbar_rotation
      1.09075000000000030000	      0.57967658789421517000	      1.04122266683672480000	      0.05390991692321768500	      4.87153879483302180000	     -1.55939470613681870000	     -0.85049133790057119000	    -10.64278764782116000000	      3.52628452403067170000	     -2.67561535055929100000	     -7.24328573852711340000	      9.69019620590093570000	      0.21257514496928534000	      1.29357571482441670000	     20.07839553777757000000	     -4.81758806256474160000	     -8.98774628714335400000	    -28.93184922664058700000	     -0.49332470837849968000	     -1.10002773166443560000	     -0.76980288109304607000	    -16.54993817718319000000	      2.69011832972217580000	      2.30743054905938250000
      1.09325000000000120000	      0.57942401565688262000	      1.04091025386359590000	      0.05397453501266572000	      4.85465386139969900000	     -1.64137309733615110000	     -0.88808633839940354000	    -10.84942440237554200000	      3.60892774401966850000	     -2.59113331671655400000	     -7.13583439873558860000	      9.77943782233118060000	      0.20486449516741620000	      1.26150552196854780000	     20.05015299425057800000	     -4.87210555539479100000	     -9.06042032027999690000	    -28.01106841991367300000	     -0.58485431286290668000	     -1.08945987551598900000	     -0.74379941320436371000	    -16.54590740132092800000	      2.75382851293083910000	      2.35106116695219300000
      1.09575000000000200000	      0.57917614137453843000	      1.04058812057093090000	      0.05403468902357412600	      4.83796870162420230000	     -1.72489505776865190000	     -0.92614500218336726000	    -11.05629188154699500000	      3.69275656941886910000	     -2.50477099555758360000	     -7.02985626390038390000	      9.86471087771158220000	      0.19551388622920662000	      1.23609180706686780000	     20.01955746934873700000	     -4.92567579825806680000	     -9.12446592385689390000	    -27.09182499038238500000	     -0.67412189692446467000	     -1.07929535800783460000	     -0.71817390631908329000	    -16.54192691817654600000	      2.81893483681808820000	      2.39462395065755060000
      1.09825000000000280000	      0.57893303763154902000	      1.04025679654406770000	      0.05409051201405756100	      4.82162277232358520000	     -1.80976944438936280000	     -0.96480904114566779000	    -11.26343254838792000000	      3.77751695199766060000	     -2.41641839619782450000	     -6.92534802387282240000	      9.94025425414138120000	      0.18267259920804596000	      1.22704044802689660000	     19.98657037489007800000	     -4.97819935617465340000	     -9.17985192972581740000	    -26.17486998680933400000	     -0.76023442022850274000	     -1.07000329352062830000	     -0.69381437460030648000	    -16.53817236270919000000	      2.88517572254361320000	      2.43820122028949230000
      1.10050000000000030000	      0.57871845831047641000	      1.03995109229874670000	      0.05413708717148411900	      4.80732398872626730000	     -1.88699358852602450000	     -1.00022988832422240000	    -11.45016249707228800000	      3.85418036723231780000	     -2.33532299604479700000	     -6.83271490618688570000	     10.00132415870330900000	      0.16920975058789220000	      1.23083768940975590000	     19.95477276067011700000	     -5.02431090687054120000	     -9.22230531758956400000	    -25.35209004120944300000	     -0.83470917489860785000	     -1.06287254506851640000	     -0.67311036255656664000	    -16.53512118054420600000	      2.94537442771903770000	      2.47744835911504870000
      1.10300000000000110000	      0.57848490894276150000	      1.03960334479768930000	      0.05418467335810708100	      4.79203350240215280000	     -1.97333021382351400000	     -1.04030387918521880000	    -11.65808043508820500000	      3.93927341203955050000	     -2.24381243499712110000	     -6.73169711355050730000	     10.06796599393874000000	      0.15537208901755725000	      1.23681121265386260000	     19.91706754685497700000	     -5.07390929964567140000	     -9.26122566250623970000	    -24.44130914324111700000	     -0.91366845737746127000	     -1.05643451646864620000	     -0.65292744526155533000	    -16.53223199411158000000	      3.01245193935609290000	      2.52100684177527960000
      1.10550000000000190000	      0.57825657789749751000	      1.03924727555871650000	      0.05422790152404952100	      4.77744865230639610000	     -2.05983399975206320000	     -1.08122342759645140000	    -11.86638260730440400000	      4.02377166913396780000	     -2.15098417448496800000	     -6.63325199855699130000	     10.14053790732861100000	      0.14570748119917104000	      1.23267183059501550000	     19.87695067557396900000	     -5.12149662918911550000	     -9.29147334365262090000	    -23.53505481066291000000	     -0.98804047672981521000	     -1.05155299018073120000	     -0.63638075000835415000	    -16.52995026302808800000	      3.07926277457382150000	      2.56450261598185180000
      1.10800000000000280000	      0.57803348819943501000	      1.03888310509289370000	      0.05426692969705536300	      4.76358866968424530000	     -2.14628339543181480000	     -1.12312921469184210000	    -12.07489592239311300000	      4.10738379410969580000	     -2.05677519226114080000	     -6.53782712417192610000	     10.22184319217790000000	      0.14095477345122304000	      1.21409673971857870000	     19.83456481525282600000	     -5.16701324818340520000	     -9.31308272174209150000	    -22.63426013946923400000	     -1.05735133411283890000	     -1.04803449935608110000	     -0.62313610771143380000	    -16.52830940308532700000	      3.14551791530486020000	      2.60802092561351100000
      1.11012500000000050000	      0.57784801442218270000	      1.03856750890981940000	      0.05429683440487397700	      4.75243161642819430000	     -2.21971461477276840000	     -1.15953387420442610000	    -12.25228503902637600000	      4.17775218468498630000	     -1.97557831493876600000	     -6.45912574194170830000	     10.29634517364324100000	      0.13975837532803076000	      1.18933645063310770000	     19.79682200974646400000	     -5.20417842618007320000	     -9.32460743670056400000	    -21.87349432522156800000	     -1.11231187056723660000	     -1.04589329109953000000	     -0.61354672710916225000	    -16.52749024960790800000	      3.20137723369230590000	      2.64504475851366210000
      1.11250000000000120000	      0.57764531733679958000	      1.03820870471182940000	      0.05432659723643274600	      4.74077545987724760000	     -2.30180185133279740000	     -1.20098864101454120000	    -12.45085466444408200000	      4.25573795789764020000	     -1.88367406138951890000	     -6.37359264747251950000	     10.38180078132422500000	      0.13981190379556896000	      1.15703088846634430000	     19.75277010212740000000	     -5.24419627252288030000	     -9.32991735208615760000	    -21.02917375524024400000	     -1.16932837314503320000	     -1.04560762240260010000	     -0.60585581299499813000	    -16.52735861113084000000	      3.26340118984635910000	      2.68640813041669540000
      1.11500000000000200000	      0.57743724395391116000	      1.03782464743560480000	      0.05435370157656731900	      4.72955373606488740000	     -2.38820664343491580000	     -1.24545517084857860000	    -12.66031465031883500000	      4.33704331594060570000	     -1.78575451973733790000	     -6.28615627607378610000	     10.46870160095903100000	      0.13925117082818275000	      1.12623625837145380000	     19.70430200449225600000	     -5.28467999486745480000	     -9.32684309550780100000	    -20.14793403847251700000	     -1.22414241132678890000	     -1.04822555017286740000	     -0.60198846735821276000	    -16.52826054354543900000	      3.32819866317435190000	      2.72989263407587450000
